<svg height='100px' width='100px'  fill="#FFFFFF" xmlns="http://www.w3.org/2000/svg" xmlns:xlink="http://www.w3.org/1999/xlink" version="1.1" x="0px" y="0px" viewBox="0 0 100 100" style="enable-background:new 0 0 100 100;" xml:space="preserve"><style type="text/css">
	.st0{fill-rule:evenodd;clip-rule:evenodd;}
</style><g><path d="M76.7480927,38.8869667L59.3480682,57.4649696c-0.0213623,0.0230103-0.0480957,0.0526733-0.0686646,0.0767212   c-0.807312,0.9451294-0.6955566,2.3657227,0.2495117,3.1730347c0.9451294,0.807312,2.3657227,0.6955566,3.1730347-0.2495117   l16.5322876-19.3543091c0.5737305-0.6738892,0.5247192-1.6897583-0.1281128-2.3011475   C78.4336395,38.1798744,77.3779144,38.2144814,76.7480927,38.8869667z"></path><path d="M87.1510468,13.4149837c-0.6428833-0.65979-1.6989136-0.6735229-2.3587036-0.0306396L52.6519012,44.7015419   c-0.0112915,0.0111084-0.0301514,0.0298462-0.0412598,0.0412598c-0.8673096,0.8900757-0.8488159,2.3146973,0.0412598,3.1820068   c0.8900757,0.8672485,2.3146973,0.8487549,3.1820068-0.0413208l31.3171387-32.1404419   C87.7788544,15.0976009,87.7833099,14.0637875,87.1510468,13.4149837z"></path><path d="M43.0961151,41.1640053l25.4801025-24.3026714c0.6467896-0.6184082,0.6936646-1.6450806,0.0932007-2.3178711   c-0.6134644-0.6873169-1.6679688-0.7471313-2.3552856-0.133728L40.0445404,37.8568153   c-0.0159302,0.0143433-0.0390625,0.0355225-0.0546875,0.050415c-0.899353,0.8577881-0.9330444,2.2822266-0.0752563,3.1815186   C40.7723846,41.988102,42.1967621,42.0217934,43.0961151,41.1640053z"></path><path d="M53.3968964,68.5687332c-0.0413208-0.2041016-0.072937-0.4100952-0.0946655-0.6171875l-0.7208862-6.859745   c-0.1918945-1.826355-1.1397705-3.4888916-2.6136475-4.5844116l-1.5095215-1.1219482   c-0.3791504-0.2817993-0.7267456-0.6036377-1.0368652-0.960022l-2.9904175-3.4369507   c-0.9022217-1.0369263-2.1071167-1.7646484-3.4448242-2.0806274l-4.2891235-1.0129395l-6.5208721-1.2421265   c-1.7728882-0.3376465-3.6066284,0.0691528-5.0703735,1.1248779l-4.4633179,3.2191162   c-1.4743652,1.0633545-2.4420166,2.6903076-2.6725464,4.4934692v0.000061   c-0.2012329,1.5737305-0.965332,3.0214233-2.151185,4.0755005l-0.7694702,0.684021   c-1.6837769,1.4966431-2.4828491,3.7518959-2.1170044,5.9747963l0.821167,4.989563l1.0267944,5.2345581   c0.3765869,1.9195557,1.5892344,3.5712891,3.3078012,4.5055542l2.5061646,1.3624268   c0.5001831,0.2718506,0.9628296,0.607666,1.3764038,0.9988403l2.7880249,2.6373291   c1.3087158,1.2379761,3.0685425,1.8839722,4.8674316,1.7867432l6.6245708-0.3580933   c0.9741211-0.0526123,1.9243164-0.3216553,2.7814331-0.7874756l5.4873047-2.9822388l5.0454102-2.4813843   c1.2086792-0.5944214,2.2053223-1.5460815,2.8548584-2.7260132l1.0092163-1.833252   c0.749939-1.3623047,0.9921265-2.9464722,0.6834717-4.4705811L53.3968964,68.5687332z"></path></g></svg>